ISO-10303-21;
HEADER;
FILE_DESCRIPTION(('ViewDefinition [CoordinationView]'),'2;1');
FILE_NAME('','2026-09-08T12:08:07',(''),(''),'IfcOpenShell 0.8.5-1c5b825','IfcOpenShell 0.8.5-1c5b825','');
FILE_SCHEMA(('IFC4'));
ENDSEC;
DATA;
#1=IFCPROJECT('0AbuFs9_L6dANQbSx2Qrz6',$,'BRABIM test',$,$,$,$,(#8,#13),#3);
#2=IFCSIUNIT(*,.LENGTHUNIT.,$,.METRE.);
#3=IFCUNITASSIGNMENT((#2));
#4=IFCCARTESIANPOINT((0.,0.,0.));
#5=IFCDIRECTION((0.,0.,1.));
#6=IFCDIRECTION((1.,0.,0.));
#7=IFCAXIS2PLACEMENT3D(#4,#5,#6);
#8=IFCGEOMETRICREPRESENTATIONCONTEXT($,'Model',3,1.0000000000000001E-05,#7,$);
#9=IFCGEOMETRICREPRESENTATIONSUBCONTEXT('Body','Model',*,*,*,*,#8,$,.MODEL_VIEW.,$);
#10=IFCCARTESIANPOINT((0.,0.));
#11=IFCDIRECTION((1.,0.));
#12=IFCAXIS2PLACEMENT2D(#10,#11);
#13=IFCGEOMETRICREPRESENTATIONCONTEXT($,'Plan',2,1.0000000000000001E-05,#12,$);
#14=IFCGEOMETRICREPRESENTATIONSUBCONTEXT('Axis','Plan',*,*,*,*,#13,$,.GRAPH_VIEW.,$);
#15=IFCBUILDINGSTOREY('0CfK2UuBb2ihJqgQ$Z5DNA',$,'Terreo',$,$,$,$,$,$,$);
#16=IFCRELAGGREGATES('0OHPlHMl91E9sRWlWMVm0n',$,$,$,#1,(#15));
#17=IFCWALL('0DjDG_K8D3lBIpT2jdqBI2',$,'P01',$,$,#23,#27,$,$);
#18=IFCRELCONTAINEDINSPATIALSTRUCTURE('3Gm0qMzKjB$giJqFFtTZnF',$,$,$,(#17,#78,#63,#48,#33),#15);
#19=IFCCARTESIANPOINT((-4.,-2.5,0.));
#20=IFCDIRECTION((0.,0.,1.));
#21=IFCDIRECTION((1.,0.,0.));
#22=IFCAXIS2PLACEMENT3D(#19,#20,#21);
#23=IFCLOCALPLACEMENT($,#22);
#27=IFCPRODUCTDEFINITIONSHAPE($,$,(#176,#173));
#28=IFCMATERIAL('Example',$,$);
#29=IFCMATERIALLAYER(#28,0.29999999999999999,$,$,$,$,50);
#30=IFCMATERIALLAYERSET((#29),$,$);
#31=IFCMATERIALLAYERSETUSAGE(#30,.AXIS2.,.POSITIVE.,-0.14999999999999999,$);
#32=IFCRELASSOCIATESMATERIAL('25s4J3hunCYvNOpqRj5uPv',$,$,$,(#17),#31);
#33=IFCWALL('32iaNaXnX5Jg43zD6xNwTz',$,'P02',$,$,#38,#42,$,$);
#34=IFCCARTESIANPOINT((-4.,2.5,0.));
#35=IFCDIRECTION((0.,0.,1.));
#36=IFCDIRECTION((1.,0.,0.));
#37=IFCAXIS2PLACEMENT3D(#34,#35,#36);
#38=IFCLOCALPLACEMENT($,#37);
#42=IFCPRODUCTDEFINITIONSHAPE($,$,(#189,#186));
#43=IFCMATERIAL('Example',$,$);
#44=IFCMATERIALLAYER(#43,0.20000000000000001,$,$,$,$,50);
#45=IFCMATERIALLAYERSET((#44),$,$);
#46=IFCMATERIALLAYERSETUSAGE(#45,.AXIS2.,.POSITIVE.,-0.10000000000000001,$);
#47=IFCRELASSOCIATESMATERIAL('1GtvaZ6TD0r8c$v6LwjYUo',$,$,$,(#33),#46);
#48=IFCWALL('1tHLmsqPjE_u9yn$8cq6gC',$,'P03',$,$,#53,#57,$,$);
#49=IFCCARTESIANPOINT((-4.,-2.5,0.));
#50=IFCDIRECTION((0.,0.,1.));
#51=IFCDIRECTION((0.,1.,0.));
#52=IFCAXIS2PLACEMENT3D(#49,#50,#51);
#53=IFCLOCALPLACEMENT($,#52);
#57=IFCPRODUCTDEFINITIONSHAPE($,$,(#202,#199));
#58=IFCMATERIAL('Example',$,$);
#59=IFCMATERIALLAYER(#58,0.25,$,$,$,$,50);
#60=IFCMATERIALLAYERSET((#59),$,$);
#61=IFCMATERIALLAYERSETUSAGE(#60,.AXIS2.,.POSITIVE.,-0.125,$);
#62=IFCRELASSOCIATESMATERIAL('3G5ibbICHFSf7PQUYr8C7z',$,$,$,(#48),#61);
#63=IFCWALL('0GfIZkuiHDTARajYaGo5pd',$,'P04',$,$,#68,#72,$,$);
#64=IFCCARTESIANPOINT((4.,-2.5,0.));
#65=IFCDIRECTION((0.,0.,1.));
#66=IFCDIRECTION((0.,1.,0.));
#67=IFCAXIS2PLACEMENT3D(#64,#65,#66);
#68=IFCLOCALPLACEMENT($,#67);
#72=IFCPRODUCTDEFINITIONSHAPE($,$,(#215,#212));
#73=IFCMATERIAL('Example',$,$);
#74=IFCMATERIALLAYER(#73,0.14999999999999999,$,$,$,$,50);
#75=IFCMATERIALLAYERSET((#74),$,$);
#76=IFCMATERIALLAYERSETUSAGE(#75,.AXIS2.,.POSITIVE.,-0.074999999999999997,$);
#77=IFCRELASSOCIATESMATERIAL('0_94TOfkH8nRa1YLo_C_6l',$,$,$,(#63),#76);
#78=IFCWALL('0Q8W7iPVv3$9eC3zYOM5GF',$,'P05',$,$,#83,#87,$,$);
#79=IFCCARTESIANPOINT((1.,-2.5,0.));
#80=IFCDIRECTION((0.,0.,1.));
#81=IFCDIRECTION((0.,1.,0.));
#82=IFCAXIS2PLACEMENT3D(#79,#80,#81);
#83=IFCLOCALPLACEMENT($,#82);
#87=IFCPRODUCTDEFINITIONSHAPE($,$,(#228,#225));
#88=IFCMATERIAL('Example',$,$);
#89=IFCMATERIALLAYER(#88,0.10000000000000001,$,$,$,$,50);
#90=IFCMATERIALLAYERSET((#89),$,$);
#91=IFCMATERIALLAYERSETUSAGE(#90,.AXIS2.,.POSITIVE.,-0.050000000000000003,$);
#92=IFCRELASSOCIATESMATERIAL('3CPNOHRb9FnRVUBoucdJIN',$,$,$,(#78),#91);
#93=IFCRELCONNECTSPATHELEMENTS('0zlS9fY2HCiOHaJMj$lhFm',$,$,$,$,#17,#48,(),(),.ATSTART.,.ATSTART.);
#94=IFCRELCONNECTSPATHELEMENTS('23aD5qsSH5AP$UfX8QX6NJ',$,$,$,$,#17,#63,(),(),.ATSTART.,.ATEND.);
#95=IFCRELCONNECTSPATHELEMENTS('1pE9yUx357ffzHbH2fg484',$,$,$,$,#33,#48,(),(),.ATEND.,.ATSTART.);
#96=IFCRELCONNECTSPATHELEMENTS('06XTogRdjF39TITo4j9ofI',$,$,$,$,#33,#63,(),(),.ATEND.,.ATEND.);
#97=IFCRELCONNECTSPATHELEMENTS('3wo7el8yH8ff3xQq0b2q8$',$,$,$,$,#17,#78,(),(),.ATSTART.,.ATPATH.);
#98=IFCRELCONNECTSPATHELEMENTS('2D_CEseGD5NBDbpUXc0Qfu',$,$,$,$,#33,#78,(),(),.ATEND.,.ATPATH.);
#164=IFCCARTESIANPOINTLIST2D(((-0.125,-0.14999999999999999),(0.125,0.14999999999999999),(7.9249999999999998,0.14999999999999999),(8.0749999999999993,-0.14999999999999999)));
#165=IFCINDEXEDPOLYCURVE(#164,(IFCLINEINDEX((1,2,3,4,1))),$);
#166=IFCARBITRARYCLOSEDPROFILEDEF(.AREA.,$,#165);
#167=IFCCARTESIANPOINT((0.,0.,0.));
#168=IFCDIRECTION((0.,0.,1.));
#169=IFCDIRECTION((1.,0.,0.));
#170=IFCAXIS2PLACEMENT3D(#167,#168,#169);
#171=IFCDIRECTION((0.,0.,1.));
#172=IFCEXTRUDEDAREASOLID(#166,#170,#171,2.7999999999999998);
#173=IFCSHAPEREPRESENTATION(#9,'Body','SweptSolid',(#172));
#174=IFCCARTESIANPOINTLIST2D(((0.,0.),(8.,0.)));
#175=IFCINDEXEDPOLYCURVE(#174,$,$);
#176=IFCSHAPEREPRESENTATION(#14,'Axis','Curve2D',(#175));
#177=IFCCARTESIANPOINTLIST2D(((0.125,-0.10000000000000001),(-0.125,0.10000000000000001),(8.0749999999999993,0.10000000000000001),(7.9249999999999998,-0.10000000000000001)));
#178=IFCINDEXEDPOLYCURVE(#177,(IFCLINEINDEX((1,2,3,4,1))),$);
#179=IFCARBITRARYCLOSEDPROFILEDEF(.AREA.,$,#178);
#180=IFCCARTESIANPOINT((0.,0.,0.));
#181=IFCDIRECTION((0.,0.,1.));
#182=IFCDIRECTION((1.,0.,0.));
#183=IFCAXIS2PLACEMENT3D(#180,#181,#182);
#184=IFCDIRECTION((0.,0.,1.));
#185=IFCEXTRUDEDAREASOLID(#179,#183,#184,2.7999999999999998);
#186=IFCSHAPEREPRESENTATION(#9,'Body','SweptSolid',(#185));
#187=IFCCARTESIANPOINTLIST2D(((0.,0.),(8.,0.)));
#188=IFCINDEXEDPOLYCURVE(#187,$,$);
#189=IFCSHAPEREPRESENTATION(#14,'Axis','Curve2D',(#188));
#190=IFCCARTESIANPOINTLIST2D(((0.14999999999999999,-0.125),(-0.14999999999999999,0.125),(5.0999999999999996,0.125),(4.9000000000000004,-0.125)));
#191=IFCINDEXEDPOLYCURVE(#190,(IFCLINEINDEX((1,2,3,4,1))),$);
#192=IFCARBITRARYCLOSEDPROFILEDEF(.AREA.,$,#191);
#193=IFCCARTESIANPOINT((0.,0.,0.));
#194=IFCDIRECTION((0.,0.,1.));
#195=IFCDIRECTION((1.,0.,0.));
#196=IFCAXIS2PLACEMENT3D(#193,#194,#195);
#197=IFCDIRECTION((0.,0.,1.));
#198=IFCEXTRUDEDAREASOLID(#192,#196,#197,2.7999999999999998);
#199=IFCSHAPEREPRESENTATION(#9,'Body','SweptSolid',(#198));
#200=IFCCARTESIANPOINTLIST2D(((0.,0.),(5.,0.)));
#201=IFCINDEXEDPOLYCURVE(#200,$,$);
#202=IFCSHAPEREPRESENTATION(#14,'Axis','Curve2D',(#201));
#203=IFCCARTESIANPOINTLIST2D(((-0.14999999999999999,-0.074999999999999997),(0.14999999999999999,0.074999999999999997),(4.9000000000000004,0.074999999999999997),(5.0999999999999996,-0.074999999999999997)));
#204=IFCINDEXEDPOLYCURVE(#203,(IFCLINEINDEX((1,2,3,4,1))),$);
#205=IFCARBITRARYCLOSEDPROFILEDEF(.AREA.,$,#204);
#206=IFCCARTESIANPOINT((0.,0.,0.));
#207=IFCDIRECTION((0.,0.,1.));
#208=IFCDIRECTION((1.,0.,0.));
#209=IFCAXIS2PLACEMENT3D(#206,#207,#208);
#210=IFCDIRECTION((0.,0.,1.));
#211=IFCEXTRUDEDAREASOLID(#205,#209,#210,2.7999999999999998);
#212=IFCSHAPEREPRESENTATION(#9,'Body','SweptSolid',(#211));
#213=IFCCARTESIANPOINTLIST2D(((0.,0.),(5.,0.)));
#214=IFCINDEXEDPOLYCURVE(#213,$,$);
#215=IFCSHAPEREPRESENTATION(#14,'Axis','Curve2D',(#214));
#216=IFCCARTESIANPOINTLIST2D(((0.14999999999999999,-0.050000000000000003),(0.14999999999999999,0.050000000000000003),(4.9000000000000004,0.050000000000000003),(4.9000000000000004,-0.050000000000000003)));
#217=IFCINDEXEDPOLYCURVE(#216,(IFCLINEINDEX((1,2,3,4,1))),$);
#218=IFCARBITRARYCLOSEDPROFILEDEF(.AREA.,$,#217);
#219=IFCCARTESIANPOINT((0.,0.,0.));
#220=IFCDIRECTION((0.,0.,1.));
#221=IFCDIRECTION((1.,0.,0.));
#222=IFCAXIS2PLACEMENT3D(#219,#220,#221);
#223=IFCDIRECTION((0.,0.,1.));
#224=IFCEXTRUDEDAREASOLID(#218,#222,#223,2.7999999999999998);
#225=IFCSHAPEREPRESENTATION(#9,'Body','SweptSolid',(#224));
#226=IFCCARTESIANPOINTLIST2D(((0.,0.),(5.,0.)));
#227=IFCINDEXEDPOLYCURVE(#226,$,$);
#228=IFCSHAPEREPRESENTATION(#14,'Axis','Curve2D',(#227));
ENDSEC;
END-ISO-10303-21;
